<svg version="1.1" id="Layer_1" xmlns:x="&ns_extend;" xmlns:i="&ns_ai;" xmlns:graph="&ns_graphs;"
	 xmlns="http://www.w3.org/2000/svg" xmlns:xlink="http://www.w3.org/1999/xlink" x="0px" y="0px" width="24px" height="24px"
	 viewBox="0 0 24 24" enable-background="new 0 0 24 24" xml:space="preserve">
<g fill="#b1afaf">
	<g>
		<g>
			<path d="M17,10c-0.3,0-0.5-0.1-0.7-0.3l-5-5c-0.4-0.4-0.4-1,0-1.4s1-0.4,1.4,0l5,5c0.4,0.4,0.4,1,0,1.4C17.5,9.9,17.3,10,17,10z"
				/>
		</g>
	</g>
	<g>
		<g>
			<path d="M7,10c-0.3,0-0.5-0.1-0.7-0.3c-0.4-0.4-0.4-1,0-1.4l5-5c0.4-0.4,1-0.4,1.4,0s0.4,1,0,1.4l-5,5C7.5,9.9,7.3,10,7,10z"/>
		</g>
	</g>
	<g>
		<g>
			<path d="M12,21c-0.6,0-1-0.4-1-1V4c0-0.6,0.4-1,1-1s1,0.4,1,1v16C13,20.6,12.6,21,12,21z"/>
		</g>
	</g>
</g>
</svg>
